{"title":"The.Tale.of.the.Princess.Kaguya.2013.BRRip.x264.HORiZON-ArtSubs","uid":11643389,"size":2148922390,"categoryP":"video","categoryS":"movies","magnet":"?xt=urn:btih:0d855c19194fe1ba04874711907dbb8fc0fef5de&amp;dn=The.Tale.of.the.Princess.Kaguya.2013.BRRip.x264.HORiZON-ArtSubs&amp;tr=udp%3A%2F%2Ftracker.openbittorrent.com%3A80&amp;tr=udp%3A%2F%2Fopen.demonii.com%3A1337&amp;tr=udp%3A%2F%2Ftracker.coppersurfer.tk%3A6969&amp;tr=udp%3A%2F%2Fexodus.desync.com%3A6969","seeders":4,"leechers":3,"uploader":"lletaif","files":1,"time":1417790624,"description":"Title:\nThe Tale of the Princess Kaguya\n\n\nCountry:\nJapan, 2013\n\n\n\nIMDB: &lt;a href=&quot;\nhttp://www.imdb.com/title/tt2576852&quot; rel=&quot;nofollow&quot; target=&quot;_NEW&quot;&gt;\nhttp://www.imdb.com/title/tt2576852&lt;/a&gt;\n\n\nPlot:\nFound inside a shining stalk of bamboo by an old bamboo cutter and his wife, a tiny girl grows rapidly into an exquisite young lady. The mysterious young princess enthralls all who encounter her - but ultimately she must confront her fate, the punishment for her crime.\n\n\nTrivia:\nOfficial Selection Cannes Film Festival 2014\n\n\n\n\nMedia Info:\n\nGeneral\nUnique ID                                : 175839540194913074950440664261635088755 (0x844976ADA0FEEDBE8BE2C52934502173)\nComplete name                            : The.Tale.of.the.Princess.Kaguya.2013.BRRip.x264.HORiZON-ArtSubs.mkv\nFormat                                   : Matroska\nFormat version                           : Version 2\nFile size                                : 2.00 GiB\nDuration                                 : 2h 17mn\nOverall bit rate                         : 2 088 Kbps\nEncoded date                             : UTC 2014-12-04 13:07:04\nWriting application                      : DVDFab 9.1.4.0\nWriting library                          : libebml v0.7.8 + libmatroska v0.8.1\n\nVideo\nID                                       : 1\nFormat                                   : AVC\nFormat/Info                              : Advanced Video Codec\nFormat profile                           : &lt;a class=&quot;__cf_email__&quot; href=&quot;/cdn-cgi/l/email-protection&quot; data-cfemail=&quot;7c34151b143c3048524d&quot;&gt;[email&amp;#160;protected]&lt;/a&gt;&lt;script cf-hash='f9e31' type=&quot;text/javascript&quot;&gt;\n/* &lt;![CDATA[ */!function(){try{var t=&quot;currentScript&quot;in document?document.currentScript:function(){for(var t=document.getElementsByTagName(&quot;script&quot;),e=t.length;e--;)if(t[e].getAttribute(&quot;cf-hash&quot;))return t[e]}();if(t&amp;&amp;t.previousSibling){var e,r,n,i,c=t.previousSibling,a=c.getAttribute(&quot;data-cfemail&quot;);if(a){for(e=&quot;&quot;,r=parseInt(a.substr(0,2),16),n=2;a.length-n;n+=2)i=parseInt(a.substr(n,2),16)^r,e+=String.fromCharCode(i);e=document.createTextNode(e),c.parentNode.replaceChild(e,c)}}}catch(u){}}();/* ]]&gt; */&lt;/script&gt;\nFormat settings, CABAC                   : Yes\nFormat settings, ReFrames                : 2 frames\nCodec ID                                 : V_MPEG4/ISO/AVC\nDuration                                 : 2h 17mn\nBit rate                                 : 1 599 Kbps\nWidth                                    : 1 024 pixels\nHeight                                   : 552 pixels\nDisplay aspect ratio                     : 1.85:1\nFrame rate mode                          : Constant\nFrame rate                               : 23.976 fps\nColor space                              : YUV\nChroma subsampling                       : 4:2:0\nBit depth                                : 8 bits\nScan type                                : Progressive\nBits/(Pixel*Frame)                       : 0.118\nStream size                              : 1.53 GiB (77%)\nWriting library                          : x264 core\nDefault                                  : Yes\nForced                                   : No\nColor primaries                          : BT.601 NTSC\nTransfer characteristics                 : BT.709\nMatrix coefficients                      : BT.601\n\nAudio\nID                                       : 2\nFormat                                   : AC-3\nFormat/Info                              : Audio Coding 3\nMode extension                           : CM (complete main)\nFormat settings, Endianness              : Big\nCodec ID                                 : A_AC3\nDuration                                 : 2h 17mn\nBit rate mode                            : Constant\nBit rate                                 : 448 Kbps\nChannel(s)                               : 6 channels\nChannel positions                        : Front: L C R, Side: L R, LFE\nSampling rate                            : 48.0 KHz\nBit depth                                : 16 bits\nCompression mode                         : Lossy\nStream size                              : 440 MiB (21%)\nLanguage                                 : Japanese\nDefault                                  : Yes\nForced                                   : No","torrent":{"xt":"urn:btih:0d855c19194fe1ba04874711907dbb8fc0fef5de","amp;dn":"The.Tale.of.the.Princess.Kaguya.2013.BRRip.x264.HORiZON-ArtSubs","amp;tr":["udp%3A%2F%2Ftracker.openbittorrent.com%3A80","udp%3A%2F%2Fopen.demonii.com%3A1337","udp%3A%2F%2Ftracker.coppersurfer.tk%3A6969","udp%3A%2F%2Fexodus.desync.com%3A6969"],"infoHash":"0d855c19194fe1ba04874711907dbb8fc0fef5de","infoHashBuffer":{"type":"Buffer","data":[13,133,92,25,25,79,225,186,4,135,71,17,144,125,187,143,192,254,245,222]},"announce":[],"urlList":[]}}